{"asset":{"generator":"Khronos glTF Spline I/O v0.0.1","version":"2.0"},"scenes":[{"nodes":[0]}],"nodes":[{"name":"","children":[1,2,3],"matrix":[0.01,0,0,0,0,0.01,0,0,0,0,0.01,0,0,0,0,1]},{"name":"","camera":0,"translation":[-512.0230727015901,294.0070630541578,879.5051170818161],"rotation":[-0.15673079135488324,-0.24721552101734537,-0.04055758204727046,0.9553402680447807]},{"name":"Directional Light","translation":[417.60747367844147,251.12106322147542,491.1102579901635],"rotation":[-0.33153539605510574,0.18749781030859652,-0.45516689091332224,0.8048303881616086],"extensions":{"KHR_lights_punctual":{"light":0}}},{"name":"object_sunglasses","matrix":[1,0,0,0,0,1,0,0,0,0,1,0,0,0,0,1],"children":[4,5,6,7,8,9,10,11]},{"name":"frameglass_r","matrix":[-1,1.2246467991473532e-16,1.4997597826618576e-32,0,1.2246467991473532e-16,1,1.2246467991473532e-16,0,0,1.1628376838865072e-17,-0.09495290272232942,0,-73.90884103320838,-3.2753868103027344,129.67062635151342,1],"mesh":0},{"name":"frameglass_l","matrix":[1,-1.2246467991473532e-16,-1.4997597826618576e-32,0,1.2246467991473532e-16,1,1.2246467991473532e-16,0,0,1.1628376838865072e-17,-0.09495290272232942,0,73.57606210254431,-3.2875938415527344,129.66986569669882,1],"mesh":1},{"name":"leg_l","matrix":[2.2204460492503264e-16,5.684341886080868e-17,1.000000000000006,0,0,1,-5.684341886080834e-17,0,-0.44818250336868587,2.762137932122193e-33,9.951650689481137e-17,0,155.58859803108788,47.9008507511457,124.79218624341868,1],"mesh":2},{"name":"leg_r","matrix":[2.2204460492503264e-16,5.684341886080868e-17,1.000000000000006,0,0,1,-5.684341886080834e-17,0,-0.44818250336868587,2.762137932122193e-33,9.951650689481137e-17,0,-144.68763399730636,47.9008507511457,124.79218624341874,1],"mesh":3},{"name":"ball_r","matrix":[0.17058122976145923,0,0,0,0,0.17058122976145923,0,0,0,0,0.17058122976145923,0,-142.01085840134482,42.054336359898116,132.9868007803907,1],"mesh":4},{"name":"ball_l","matrix":[0.17058122976145923,0,0,0,0,0.17058122976145923,0,0,0,0,0.17058122976145923,0,142.40697616253266,41.353564090470854,132.9868007803907,1],"mesh":5},{"name":"glass_r","matrix":[1.0293420945898275,0,0,0,0,1.0293420945898275,-5.851132383383181e-17,0,0,5.851132383383181e-17,1.0293420945898275,0,-79.30454356822221,48.022705395130345,134.08072943544357,1],"mesh":6},{"name":"glass_l","matrix":[1.0824748326573992,0,0,0,0,1.0824748326573992,-6.15315703190284e-17,0,0,6.15315703190284e-17,1.0824748326573992,0,70.48430306565052,51.99374899749935,134.08072943544357,1],"mesh":7}],"cameras":[{"type":"orthographic","orthographic":{"xmag":1920,"ymag":995,"zfar":100000,"znear":-100000}}],"meshes":[{"primitives":[{"attributes":{"POSITION":1,"NORMAL":2},"indices":0}]},{"primitives":[{"attributes":{"POSITION":4,"NORMAL":5},"indices":3}]},{"primitives":[{"attributes":{"POSITION":7,"NORMAL":8,"TEXCOORD_0":9},"indices":6}]},{"primitives":[{"attributes":{"POSITION":11,"NORMAL":12,"TEXCOORD_0":13},"indices":10}]},{"primitives":[{"attributes":{"POSITION":15,"NORMAL":16,"TEXCOORD_0":17},"indices":14}]},{"primitives":[{"attributes":{"POSITION":19,"NORMAL":20,"TEXCOORD_0":21},"indices":18}]},{"primitives":[{"attributes":{"POSITION":23,"NORMAL":24,"TEXCOORD_0":25},"indices":22}]},{"primitives":[{"attributes":{"POSITION":27,"NORMAL":28,"TEXCOORD_0":29},"indices":26}]}],"buffers":[{"uri":"data:application/octet-stream;base64,","byteLength":522240},{"uri":"data:application/octet-stream;base64,","byteLength":522240},{"uri":"data:application/octet-stream;base64,","byteLength":278736},{"uri":"data:application/octet-stream;base64,","byteLength":278736},{"uri":"data:application/octet-stream;base64,","byteLength":183584},{"uri":"data:application/octet-stream;base64,","byteLength":183584},{"uri":"data:application/octet-stream;base64,","byteLength":120912},{"uri":"data:application/octet-stream;base64,","byteLength":120912}],"bufferViews":[{"buffer":0,"byteOffset":0,"byteLength":104448,"target":34963},{"buffer":0,"byteOffset":104448,"byteLength":208896,"target":34962},{"buffer":0,"byteOffset":313344,"byteLength":208896,"target":34962},{"buffer":1,"byteOffset":0,"byteLength":104448,"target":34963},{"buffer":1,"byteOffset":104448,"byteLength":208896,"target":34962},{"buffer":1,"byteOffset":313344,"byteLength":208896,"target":34962},{"buffer":2,"byteOffset":0,"byteLength":46416,"target":34963},{"buffer":2,"byteOffset":46416,"byteLength":77440,"target":34962},{"buffer":2,"byteOffset":123856,"byteLength":77440,"target":34962},{"buffer":2,"byteOffset":201296,"byteLength":77440,"target":34962},{"buffer":3,"byteOffset":0,"byteLength":46416,"target":34963},{"buffer":3,"byteOffset":46416,"byteLength":77440,"target":34962},{"buffer":3,"byteOffset":123856,"byteLength":77440,"target":34962},{"buffer":3,"byteOffset":201296,"byteLength":77440,"target":34962},{"buffer":4,"byteOffset":0,"byteLength":48384,"target":34963},{"buffer":4,"byteOffset":48384,"byteLength":50700,"target":34962},{"buffer":4,"byteOffset":99084,"byteLength":50700,"target":34962},{"buffer":4,"byteOffset":149784,"byteLength":33800,"target":34962},{"buffer":5,"byteOffset":0,"byteLength":48384,"target":34963},{"buffer":5,"byteOffset":48384,"byteLength":50700,"target":34962},{"buffer":5,"byteOffset":99084,"byteLength":50700,"target":34962},{"buffer":5,"byteOffset":149784,"byteLength":33800,"target":34962},{"buffer":6,"byteOffset":0,"byteLength":13392,"target":34963},{"buffer":6,"byteOffset":13392,"byteLength":35840,"target":34962},{"buffer":6,"byteOffset":49232,"byteLength":35840,"target":34962},{"buffer":6,"byteOffset":85072,"byteLength":35840,"target":34962},{"buffer":7,"byteOffset":0,"byteLength":13392,"target":34963},{"buffer":7,"byteOffset":13392,"byteLength":35840,"target":34962},{"buffer":7,"byteOffset":49232,"byteLength":35840,"target":34962},{"buffer":7,"byteOffset":85072,"byteLength":35840,"target":34962}],"accessors":[{"bufferView":0,"byteOffset":0,"componentType":5125,"count":26112,"type":"SCALAR","min":[0],"max":[17407]},{"bufferView":1,"byteOffset":0,"componentType":5126,"count":17408,"type":"VEC3","min":[-81.56819152832031,-49.591102600097656,-145.27142333984375],"max":[84.34284973144531,60.602821350097656,176.6337127685547]},{"bufferView":2,"byteOffset":0,"componentType":5126,"count":17408,"type":"VEC3","min":[-1,-1,-1],"max":[1,1,1]},{"bufferView":3,"byteOffset":0,"componentType":5125,"count":26112,"type":"SCALAR","min":[0],"max":[17407]},{"bufferView":4,"byteOffset":0,"componentType":5126,"count":17408,"type":"VEC3","min":[-81.88896942138672,-49.775901794433594,-145.1190185546875],"max":[84.67453002929688,60.84305191040039,176.44839477539062]},{"bufferView":5,"byteOffset":0,"componentType":5126,"count":17408,"type":"VEC3","min":[-1,-1,-1],"max":[1,1,1]},{"bufferView":6,"byteOffset":0,"componentType":5125,"count":11604,"type":"SCALAR","min":[0],"max":[2419]},{"bufferView":7,"byteOffset":0,"componentType":5126,"count":2420,"type":"VEC3","min":[-270.99041748046875,-40.739051818847656,0],"max":[0,0,15]},{"bufferView":8,"byteOffset":0,"componentType":5126,"count":2420,"type":"VEC3","min":[-0.9988353252410889,-0.999973714351654,-1],"max":[1,1,1]},{"bufferView":9,"byteOffset":0,"componentType":5126,"count":2420,"type":"VEC2","min":[0,0],"max":[1,1]},{"bufferView":10,"byteOffset":0,"componentType":5125,"count":11604,"type":"SCALAR","min":[0],"max":[2419]},{"bufferView":11,"byteOffset":0,"componentType":5126,"count":2420,"type":"VEC3","min":[-270.99041748046875,-40.739051818847656,0],"max":[0,0,15]},{"bufferView":12,"byteOffset":0,"componentType":5126,"count":2420,"type":"VEC3","min":[-0.9988353252410889,-0.999973714351654,-1],"max":[1,1,1]},{"bufferView":13,"byteOffset":0,"componentType":5126,"count":2420,"type":"VEC2","min":[0,0],"max":[1,1]},{"bufferView":14,"byteOffset":0,"componentType":5123,"count":24192,"type":"SCALAR","min":[0],"max":[4224]},{"bufferView":15,"byteOffset":0,"componentType":5126,"count":4225,"type":"VEC3","min":[-27,-27,-27],"max":[27,27,27]},{"bufferView":16,"byteOffset":0,"componentType":5126,"count":4225,"type":"VEC3","min":[-1,-1,-1],"max":[1,1,1]},{"bufferView":17,"byteOffset":0,"componentType":5126,"count":4225,"type":"VEC2","min":[-0.0078125,0],"max":[1.0078125,1]},{"bufferView":18,"byteOffset":0,"componentType":5123,"count":24192,"type":"SCALAR","min":[0],"max":[4224]},{"bufferView":19,"byteOffset":0,"componentType":5126,"count":4225,"type":"VEC3","min":[-27,-27,-27],"max":[27,27,27]},{"bufferView":20,"byteOffset":0,"componentType":5126,"count":4225,"type":"VEC3","min":[-1,-1,-1],"max":[1,1,1]},{"bufferView":21,"byteOffset":0,"componentType":5126,"count":4225,"type":"VEC2","min":[-0.0078125,0],"max":[1.0078125,1]},{"bufferView":22,"byteOffset":0,"componentType":5125,"count":3348,"type":"SCALAR","min":[0],"max":[1119]},{"bufferView":23,"byteOffset":0,"componentType":5126,"count":1120,"type":"VEC3","min":[-41.58269500732422,-92.46656799316406,0],"max":[49.253902435302734,0,4]},{"bufferView":24,"byteOffset":0,"componentType":5126,"count":1120,"type":"VEC3","min":[-1,-0.9999688863754272,-1],"max":[0.9999974370002747,0.9999933838844299,1]},{"bufferView":25,"byteOffset":0,"componentType":5126,"count":1120,"type":"VEC2","min":[0,0],"max":[1,1]},{"bufferView":26,"byteOffset":0,"componentType":5125,"count":3348,"type":"SCALAR","min":[0],"max":[1119]},{"bufferView":27,"byteOffset":0,"componentType":5126,"count":1120,"type":"VEC3","min":[-41.1668701171875,-92.46656799316406,0],"max":[48.7613639831543,0,4]},{"bufferView":28,"byteOffset":0,"componentType":5126,"count":1120,"type":"VEC3","min":[-1,-0.9999682307243347,-1],"max":[0.9999974966049194,0.9999932646751404,1]},{"bufferView":29,"byteOffset":0,"componentType":5126,"count":1120,"type":"VEC2","min":[0,0],"max":[1,1]}],"extensions":{"KHR_lights_punctual":{"lights":[{"type":"directional","name":"Directional Light","color":[1,1,1],"intensity":0.7}]}},"extensionsUsed":["KHR_lights_punctual"]}