<svg width="138" height="22" viewBox="0 0 138 22" fill="none" xmlns="http://www.w3.org/2000/svg">
<path d="M17.9106 8.94176H13.2941C13.2326 8.4678 13.1064 8.04001 12.9156 7.65838C12.7248 7.27675 12.4724 6.95052 12.1585 6.67969C11.8445 6.40885 11.4722 6.20265 11.0413 6.06108C10.6166 5.91335 10.1457 5.83949 9.62864 5.83949C8.7115 5.83949 7.92054 6.06416 7.25577 6.51349C6.59715 6.96283 6.08934 7.61222 5.73233 8.46165C5.38148 9.31108 5.20605 10.339 5.20605 11.5455C5.20605 12.8011 5.38456 13.8537 5.74157 14.7031C6.10473 15.5464 6.61254 16.1835 7.265 16.6143C7.92362 17.0391 8.70227 17.2514 9.60094 17.2514C10.1057 17.2514 10.5642 17.1868 10.9767 17.0575C11.3952 16.9283 11.7615 16.7405 12.0754 16.4943C12.3954 16.242 12.6571 15.9373 12.8602 15.5803C13.0695 15.2171 13.2141 14.8078 13.2941 14.3523L17.9106 14.38C17.8306 15.2171 17.5874 16.0419 17.1812 16.8544C16.7811 17.6669 16.2302 18.4086 15.5285 19.0795C14.8268 19.7443 13.9712 20.2737 12.9617 20.6676C11.9584 21.0616 10.8074 21.2585 9.50861 21.2585C7.79744 21.2585 6.26477 20.883 4.9106 20.1321C3.56259 19.375 2.49772 18.2732 1.716 16.8267C0.934274 15.3802 0.543413 13.6198 0.543413 11.5455C0.543413 9.46496 0.94043 7.70147 1.73446 6.25497C2.5285 4.80848 3.6026 3.70975 4.95677 2.95881C6.31093 2.20786 7.82821 1.83239 9.50861 1.83239C10.6535 1.83239 11.7122 1.99242 12.6847 2.3125C13.6573 2.62642 14.5129 3.08807 15.2515 3.69744C15.9901 4.30066 16.5903 5.04238 17.0519 5.92259C17.5136 6.80279 17.7998 7.80919 17.9106 8.94176ZM29.6757 14.8786V6.81818H34.1814V21H29.8788V18.3594H29.7311C29.4172 19.2273 28.8817 19.9167 28.1246 20.4276C27.3736 20.9323 26.4657 21.1847 25.4008 21.1847C24.4345 21.1847 23.585 20.9631 22.8525 20.5199C22.1201 20.0767 21.5507 19.4581 21.1444 18.6641C20.7382 17.8639 20.532 16.9283 20.5258 15.8572V6.81818H25.0407V14.9709C25.0469 15.7403 25.25 16.3466 25.6501 16.7898C26.0502 17.233 26.595 17.4545 27.2844 17.4545C27.7337 17.4545 28.1369 17.3561 28.4939 17.1591C28.857 16.956 29.1433 16.6636 29.3525 16.282C29.568 15.8942 29.6757 15.4264 29.6757 14.8786ZM49.4365 11.1484L45.2909 11.2592C45.2478 10.9638 45.1309 10.7022 44.9401 10.4744C44.7493 10.2405 44.5 10.0589 44.1922 9.92969C43.8906 9.79427 43.5397 9.72656 43.1396 9.72656C42.6164 9.72656 42.1702 9.8312 41.8009 10.0405C41.4377 10.2498 41.2592 10.5329 41.2654 10.8899C41.2592 11.1669 41.37 11.407 41.5977 11.6101C41.8316 11.8132 42.2471 11.9763 42.8442 12.0994L45.5771 12.6165C46.9929 12.8873 48.0454 13.3366 48.7348 13.9645C49.4304 14.5923 49.7812 15.4233 49.7874 16.4574C49.7812 17.4299 49.4919 18.2763 48.9195 18.9964C48.3532 19.7166 47.5776 20.2768 46.5928 20.6768C45.6079 21.0708 44.4815 21.2678 43.2135 21.2678C41.1884 21.2678 39.5911 20.8523 38.4216 20.0213C37.2583 19.1842 36.5935 18.0639 36.4273 16.6605L40.8868 16.5497C40.9853 17.0668 41.2407 17.4607 41.6531 17.7315C42.0655 18.0024 42.5918 18.1378 43.232 18.1378C43.8106 18.1378 44.2815 18.0301 44.6446 17.8146C45.0078 17.5992 45.1924 17.313 45.1986 16.956C45.1924 16.6359 45.0509 16.3804 44.7739 16.1896C44.4969 15.9927 44.0629 15.8388 43.472 15.728L40.9976 15.2571C39.5757 14.9986 38.517 14.5215 37.8215 13.826C37.1259 13.1243 36.7812 12.2318 36.7874 11.1484C36.7812 10.2005 37.0336 9.3911 37.5445 8.72017C38.0554 8.04309 38.7817 7.52604 39.7235 7.16903C40.6652 6.81203 41.7762 6.63352 43.0566 6.63352C44.977 6.63352 46.4912 7.0367 47.5992 7.84304C48.7071 8.64323 49.3196 9.74503 49.4365 11.1484ZM60.0152 6.81818V10.142H51.0684V6.81818H60.0152ZM52.9427 3.42045H57.4577V16.5405C57.4577 16.8175 57.5007 17.0421 57.5869 17.2145C57.6792 17.3807 57.8116 17.5007 57.9839 17.5746C58.1563 17.6423 58.3625 17.6761 58.6025 17.6761C58.7749 17.6761 58.9565 17.6607 59.1473 17.63C59.3443 17.593 59.492 17.5623 59.5905 17.5376L60.2737 20.7969C60.0583 20.8584 59.7536 20.9354 59.3596 21.0277C58.9719 21.12 58.5071 21.1785 57.9655 21.2031C56.9068 21.2524 55.9988 21.1293 55.2417 20.8338C54.4908 20.5322 53.9153 20.0644 53.5152 19.4304C53.1212 18.7964 52.9304 17.9993 52.9427 17.0391V3.42045ZM68.7865 21.2678C67.2969 21.2678 66.0166 20.9631 64.9456 20.3537C63.8807 19.7382 63.059 18.8826 62.4804 17.7869C61.9079 16.6851 61.6217 15.4079 61.6217 13.9553C61.6217 12.4964 61.9079 11.2192 62.4804 10.1236C63.059 9.02178 63.8807 8.16619 64.9456 7.55682C66.0166 6.94129 67.2969 6.63352 68.7865 6.63352C70.2761 6.63352 71.5533 6.94129 72.6182 7.55682C73.6892 8.16619 74.5109 9.02178 75.0834 10.1236C75.662 11.2192 75.9513 12.4964 75.9513 13.9553C75.9513 15.4079 75.662 16.6851 75.0834 17.7869C74.5109 18.8826 73.6892 19.7382 72.6182 20.3537C71.5533 20.9631 70.2761 21.2678 68.7865 21.2678ZM68.8142 17.8608C69.3559 17.8608 69.8144 17.6946 70.1899 17.3622C70.5654 17.0298 70.8516 16.5682 71.0486 15.9773C71.2517 15.3864 71.3532 14.7031 71.3532 13.9276C71.3532 13.1397 71.2517 12.4503 71.0486 11.8594C70.8516 11.2685 70.5654 10.8068 70.1899 10.4744C69.8144 10.142 69.3559 9.97585 68.8142 9.97585C68.2541 9.97585 67.7801 10.142 67.3923 10.4744C67.0107 10.8068 66.7183 11.2685 66.5152 11.8594C66.3182 12.4503 66.2197 13.1397 66.2197 13.9276C66.2197 14.7031 66.3182 15.3864 66.5152 15.9773C66.7183 16.5682 67.0107 17.0298 67.3923 17.3622C67.7801 17.6946 68.2541 17.8608 68.8142 17.8608ZM78.2641 21V6.81818H82.5574V9.42188H82.7144C83.0099 8.56013 83.5084 7.87997 84.2101 7.38139C84.9118 6.88281 85.749 6.63352 86.7215 6.63352C87.7064 6.63352 88.5496 6.88589 89.2513 7.39062C89.953 7.89536 90.3993 8.57244 90.5901 9.42188H90.7378C91.0025 8.5786 91.5196 7.90459 92.289 7.39986C93.0584 6.88897 93.9663 6.63352 95.0127 6.63352C96.3546 6.63352 97.444 7.06439 98.2812 7.92614C99.1183 8.78172 99.5368 9.95739 99.5368 11.4531V21H95.0219V12.4872C95.0219 11.7794 94.8403 11.2408 94.4772 10.8714C94.114 10.496 93.6431 10.3082 93.0645 10.3082C92.4429 10.3082 91.9535 10.5114 91.5965 10.9176C91.2457 11.3177 91.0702 11.8563 91.0702 12.5334V21H86.7307V12.4411C86.7307 11.7824 86.5522 11.2623 86.1952 10.8807C85.8382 10.4991 85.3673 10.3082 84.7826 10.3082C84.3886 10.3082 84.0409 10.4036 83.7393 10.5945C83.4376 10.7791 83.2007 11.0438 83.0283 11.3885C82.8621 11.7332 82.779 12.1394 82.779 12.6072V21H78.2641ZM102.334 21V6.81818H106.849V21H102.334ZM104.597 5.16548C103.963 5.16548 103.418 4.9562 102.962 4.53764C102.507 4.11293 102.279 3.60204 102.279 3.00497C102.279 2.41406 102.507 1.90933 102.962 1.49077C103.418 1.06605 103.963 0.853692 104.597 0.853692C105.237 0.853692 105.781 1.06605 106.231 1.49077C106.686 1.90933 106.914 2.41406 106.914 3.00497C106.914 3.60204 106.686 4.11293 106.231 4.53764C105.781 4.9562 105.237 5.16548 104.597 5.16548ZM109.76 21V18.424L116.334 10.419V10.3267H109.991V6.81818H121.717V9.64347L115.623 17.3991V17.4915H121.938V21H109.76ZM131.079 21.2678C129.595 21.2678 128.315 20.9754 127.238 20.3906C126.167 19.7997 125.342 18.9595 124.764 17.87C124.191 16.7744 123.905 15.4725 123.905 13.9645C123.905 12.4995 124.194 11.2192 124.773 10.1236C125.351 9.02178 126.167 8.16619 127.22 7.55682C128.272 6.94129 129.512 6.63352 130.94 6.63352C131.95 6.63352 132.873 6.79048 133.71 7.1044C134.547 7.41832 135.271 7.88305 135.88 8.49858C136.489 9.11411 136.963 9.87429 137.302 10.7791C137.64 11.6778 137.81 12.7088 137.81 13.8722V14.9986H125.484V12.3764H133.609C133.603 11.8963 133.489 11.4685 133.267 11.093C133.046 10.7176 132.741 10.4252 132.353 10.2159C131.971 10.0005 131.531 9.89276 131.033 9.89276C130.528 9.89276 130.076 10.0066 129.676 10.2344C129.275 10.456 128.958 10.7607 128.725 11.1484C128.491 11.5301 128.368 11.964 128.355 12.4503V15.1186C128.355 15.6972 128.469 16.205 128.697 16.642C128.925 17.0729 129.248 17.4084 129.666 17.6484C130.085 17.8885 130.583 18.0085 131.162 18.0085C131.562 18.0085 131.925 17.9531 132.252 17.8423C132.578 17.7315 132.858 17.5684 133.092 17.353C133.326 17.1375 133.501 16.8729 133.618 16.5589L137.764 16.679C137.591 17.6084 137.213 18.4179 136.628 19.1072C136.049 19.7905 135.289 20.3229 134.347 20.7045C133.406 21.08 132.316 21.2678 131.079 21.2678Z" fill="url(#paint0_linear_189_536)"/>
<defs>
<linearGradient id="paint0_linear_189_536" x1="-1.89282e-05" y1="-26" x2="116" y2="118" gradientUnits="userSpaceOnUse">
<stop stop-color="#00EE99"/>
<stop offset="0.806972" stop-color="#9400EE"/>
<stop offset="1" stop-color="#9400EE"/>
</linearGradient>
</defs>
</svg>
