<svg width="208" height="21" viewBox="0 0 208 21" fill="none" xmlns="http://www.w3.org/2000/svg">
<path d="M18.0493 7.94176H13.4328C13.3712 7.4678 13.2451 7.04001 13.0542 6.65838C12.8634 6.27675 12.6111 5.95052 12.2971 5.67969C11.9832 5.40885 11.6108 5.20265 11.18 5.06108C10.7552 4.91335 10.2844 4.83949 9.76731 4.83949C8.85017 4.83949 8.05922 5.06416 7.39444 5.51349C6.73583 5.96283 6.22801 6.61222 5.87101 7.46165C5.52015 8.31108 5.34473 9.33901 5.34473 10.5455C5.34473 11.8011 5.52323 12.8537 5.88024 13.7031C6.2434 14.5464 6.75121 15.1835 7.40368 15.6143C8.06229 16.0391 8.84094 16.2514 9.73961 16.2514C10.2443 16.2514 10.7029 16.1868 11.1153 16.0575C11.5339 15.9283 11.9001 15.7405 12.214 15.4943C12.5341 15.242 12.7957 14.9373 12.9988 14.5803C13.2081 14.2171 13.3528 13.8078 13.4328 13.3523L18.0493 13.38C17.9693 14.2171 17.7261 15.0419 17.3199 15.8544C16.9198 16.6669 16.3689 17.4086 15.6672 18.0795C14.9655 18.7443 14.1099 19.2737 13.1004 19.6676C12.0971 20.0616 10.9461 20.2585 9.64728 20.2585C7.93611 20.2585 6.40344 19.883 5.04927 19.1321C3.70126 18.375 2.63639 17.2732 1.85467 15.8267C1.07295 14.3802 0.682085 12.6198 0.682085 10.5455C0.682085 8.46496 1.0791 6.70147 1.87314 5.25497C2.66717 3.80848 3.74127 2.70975 5.09544 1.95881C6.4496 1.20786 7.96689 0.832386 9.64728 0.832386C10.7922 0.832386 11.8509 0.992424 12.8234 1.3125C13.796 1.62642 14.6515 2.08807 15.3902 2.69744C16.1288 3.30066 16.729 4.04238 17.1906 4.92259C17.6523 5.80279 17.9385 6.80919 18.0493 7.94176ZM27.2845 20.2678C25.795 20.2678 24.5146 19.9631 23.4436 19.3537C22.3788 18.7382 21.557 17.8826 20.9784 16.7869C20.406 15.6851 20.1198 14.4079 20.1198 12.9553C20.1198 11.4964 20.406 10.2192 20.9784 9.12358C21.557 8.02178 22.3788 7.16619 23.4436 6.55682C24.5146 5.94129 25.795 5.63352 27.2845 5.63352C28.7741 5.63352 30.0513 5.94129 31.1162 6.55682C32.1872 7.16619 33.009 8.02178 33.5814 9.12358C34.16 10.2192 34.4493 11.4964 34.4493 12.9553C34.4493 14.4079 34.16 15.6851 33.5814 16.7869C33.009 17.8826 32.1872 18.7382 31.1162 19.3537C30.0513 19.9631 28.7741 20.2678 27.2845 20.2678ZM27.3122 16.8608C27.8539 16.8608 28.3125 16.6946 28.6879 16.3622C29.0634 16.0298 29.3496 15.5682 29.5466 14.9773C29.7497 14.3864 29.8513 13.7031 29.8513 12.9276C29.8513 12.1397 29.7497 11.4503 29.5466 10.8594C29.3496 10.2685 29.0634 9.80682 28.6879 9.47443C28.3125 9.14205 27.8539 8.97585 27.3122 8.97585C26.7521 8.97585 26.2781 9.14205 25.8904 9.47443C25.5087 9.80682 25.2164 10.2685 25.0132 10.8594C24.8163 11.4503 24.7178 12.1397 24.7178 12.9276C24.7178 13.7031 24.8163 14.3864 25.0132 14.9773C25.2164 15.5682 25.5087 16.0298 25.8904 16.3622C26.2781 16.6946 26.7521 16.8608 27.3122 16.8608ZM41.2771 11.9119V20H36.7622V5.81818H41.0555V8.42188H41.2124C41.5264 7.55398 42.0619 6.87382 42.819 6.38139C43.5761 5.88281 44.4778 5.63352 45.5242 5.63352C46.5214 5.63352 47.3862 5.85819 48.1187 6.30753C48.8573 6.75071 49.4298 7.3724 49.836 8.17258C50.2484 8.96662 50.4516 9.89607 50.4454 10.9609V20H45.9305V11.8473C45.9366 11.0594 45.7366 10.4439 45.3303 10.0007C44.9303 9.55753 44.3732 9.33594 43.6592 9.33594C43.1852 9.33594 42.7667 9.44058 42.4035 9.64986C42.0465 9.85298 41.7695 10.1454 41.5725 10.527C41.3817 10.9086 41.2832 11.3703 41.2771 11.9119ZM57.7556 11.9119V20H53.2407V5.81818H57.534V8.42188H57.691C58.0049 7.55398 58.5404 6.87382 59.2975 6.38139C60.0546 5.88281 60.9564 5.63352 62.0028 5.63352C62.9999 5.63352 63.8647 5.85819 64.5972 6.30753C65.3358 6.75071 65.9083 7.3724 66.3145 8.17258C66.7269 8.96662 66.9301 9.89607 66.9239 10.9609V20H62.409V11.8473C62.4152 11.0594 62.2151 10.4439 61.8089 10.0007C61.4088 9.55753 60.8517 9.33594 60.1377 9.33594C59.6637 9.33594 59.2452 9.44058 58.882 9.64986C58.525 9.85298 58.248 10.1454 58.051 10.527C57.8602 10.9086 57.7617 11.3703 57.7556 11.9119ZM76.3485 20.2678C74.865 20.2678 73.5847 19.9754 72.5075 19.3906C71.4365 18.7997 70.6117 17.9595 70.0331 16.87C69.4607 15.7744 69.1744 14.4725 69.1744 12.9645C69.1744 11.4995 69.4637 10.2192 70.0423 9.12358C70.6209 8.02178 71.4365 7.16619 72.4891 6.55682C73.5416 5.94129 74.7819 5.63352 76.21 5.63352C77.2194 5.63352 78.1427 5.79048 78.9798 6.1044C79.817 6.41832 80.5402 6.88305 81.1496 7.49858C81.759 8.11411 82.2329 8.87429 82.5715 9.77912C82.91 10.6778 83.0793 11.7088 83.0793 12.8722V13.9986H70.7533V11.3764H78.8783C78.8721 10.8963 78.7583 10.4685 78.5367 10.093C78.3151 9.71757 78.0104 9.42519 77.6226 9.21591C77.241 9.00047 76.8009 8.89276 76.3023 8.89276C75.7976 8.89276 75.3451 9.00663 74.945 9.23438C74.545 9.45597 74.228 9.76065 73.9941 10.1484C73.7602 10.5301 73.637 10.964 73.6247 11.4503V14.1186C73.6247 14.6972 73.7386 15.205 73.9664 15.642C74.1941 16.0729 74.5173 16.4084 74.9358 16.6484C75.3544 16.8885 75.853 17.0085 76.4316 17.0085C76.8316 17.0085 77.1948 16.9531 77.521 16.8423C77.8473 16.7315 78.1273 16.5684 78.3612 16.353C78.5951 16.1375 78.7706 15.8729 78.8875 15.5589L83.0331 15.679C82.8608 16.6084 82.4822 17.4179 81.8975 18.1072C81.3189 18.7905 80.5587 19.3229 79.6169 19.7045C78.6752 20.08 77.5857 20.2678 76.3485 20.2678ZM92.0052 20.2678C90.5095 20.2678 89.2261 19.96 88.1551 19.3445C87.0902 18.7289 86.2716 17.8733 85.6991 16.7777C85.1267 15.6759 84.8405 14.4018 84.8405 12.9553C84.8405 11.5026 85.1267 10.2285 85.6991 9.13281C86.2777 8.03101 87.0995 7.17235 88.1643 6.55682C89.2354 5.94129 90.5126 5.63352 91.996 5.63352C93.3071 5.63352 94.4489 5.8705 95.4214 6.34446C96.4001 6.81842 97.1634 7.48935 97.7112 8.35724C98.2652 9.21899 98.5576 10.2315 98.5883 11.3949H94.3689C94.2827 10.6686 94.0365 10.0992 93.6302 9.68679C93.2301 9.27438 92.7069 9.06818 92.0606 9.06818C91.5374 9.06818 91.0789 9.21591 90.6849 9.51136C90.291 9.80066 89.9832 10.2315 89.7616 10.804C89.5462 11.3703 89.4385 12.072 89.4385 12.9091C89.4385 13.7462 89.5462 14.4541 89.7616 15.0327C89.9832 15.6051 90.291 16.0391 90.6849 16.3345C91.0789 16.6238 91.5374 16.7685 92.0606 16.7685C92.4792 16.7685 92.8485 16.6792 93.1686 16.5007C93.4948 16.3222 93.7626 16.0606 93.9719 15.7159C94.1811 15.3651 94.3135 14.9403 94.3689 14.4418H98.5883C98.5452 15.6113 98.2529 16.633 97.7112 17.5071C97.1757 18.3812 96.4217 19.0613 95.4491 19.5476C94.4827 20.0277 93.3348 20.2678 92.0052 20.2678ZM108.904 5.81818V9.14204H99.9571V5.81818H108.904ZM101.831 2.42045H106.346V15.5405C106.346 15.8175 106.389 16.0421 106.476 16.2145C106.568 16.3807 106.7 16.5007 106.873 16.5746C107.045 16.6423 107.251 16.6761 107.491 16.6761C107.664 16.6761 107.845 16.6607 108.036 16.63C108.233 16.593 108.381 16.5623 108.479 16.5376L109.162 19.7969C108.947 19.8584 108.642 19.9354 108.248 20.0277C107.861 20.12 107.396 20.1785 106.854 20.2031C105.795 20.2524 104.888 20.1293 104.13 19.8338C103.379 19.5322 102.804 19.0644 102.404 18.4304C102.01 17.7964 101.819 16.9993 101.831 16.0391V2.42045ZM119.443 20L115.75 5.81818H120.283L122.195 14.9034H122.315L124.364 5.81818H128.787L130.892 14.8388H131.012L132.868 5.81818H137.401L133.699 20H128.87L126.654 11.7365H126.497L124.281 20H119.443ZM143.211 20.2401C142.306 20.2401 141.503 20.0893 140.801 19.7876C140.106 19.4799 139.555 19.0182 139.149 18.4027C138.749 17.781 138.549 17.0024 138.549 16.0668C138.549 15.2789 138.687 14.6141 138.964 14.0724C139.241 13.5308 139.623 13.0907 140.109 12.7521C140.595 12.4136 141.155 12.1581 141.789 11.9858C142.423 11.8073 143.1 11.6873 143.821 11.6257C144.627 11.5518 145.276 11.4749 145.769 11.3949C146.261 11.3087 146.618 11.1887 146.84 11.0348C147.068 10.8748 147.181 10.6501 147.181 10.3608V10.3146C147.181 9.84067 147.018 9.47443 146.692 9.21591C146.366 8.95739 145.926 8.82812 145.372 8.82812C144.775 8.82812 144.295 8.95739 143.931 9.21591C143.568 9.47443 143.337 9.83144 143.239 10.2869L139.075 10.1392C139.198 9.27746 139.515 8.50805 140.026 7.83097C140.543 7.14773 141.251 6.61222 142.149 6.22443C143.054 5.83049 144.141 5.63352 145.409 5.63352C146.313 5.63352 147.148 5.74124 147.911 5.95668C148.674 6.16596 149.339 6.47372 149.905 6.87997C150.471 7.28007 150.908 7.77249 151.216 8.35724C151.53 8.942 151.687 9.60985 151.687 10.3608V20H147.44V18.0241H147.329C147.077 18.5043 146.754 18.9105 146.36 19.2429C145.972 19.5753 145.513 19.8246 144.984 19.9908C144.461 20.157 143.87 20.2401 143.211 20.2401ZM144.605 17.2855C145.092 17.2855 145.529 17.187 145.916 16.9901C146.31 16.7931 146.624 16.5223 146.858 16.1776C147.092 15.8267 147.209 15.4205 147.209 14.9588V13.6108C147.08 13.6785 146.923 13.7401 146.738 13.7955C146.56 13.8509 146.363 13.9032 146.147 13.9524C145.932 14.0017 145.71 14.0447 145.483 14.0817C145.255 14.1186 145.036 14.1525 144.827 14.1832C144.402 14.2509 144.039 14.3556 143.737 14.4972C143.442 14.6387 143.214 14.8234 143.054 15.0511C142.9 15.2727 142.823 15.5374 142.823 15.8452C142.823 16.313 142.99 16.67 143.322 16.9162C143.661 17.1624 144.088 17.2855 144.605 17.2855ZM158.963 1.09091V20H154.448V1.09091H158.963ZM166.351 1.09091V20H161.836V1.09091H166.351ZM175.854 20.2678C174.371 20.2678 173.091 19.9754 172.013 19.3906C170.942 18.7997 170.118 17.9595 169.539 16.87C168.967 15.7744 168.68 14.4725 168.68 12.9645C168.68 11.4995 168.97 10.2192 169.548 9.12358C170.127 8.02178 170.942 7.16619 171.995 6.55682C173.047 5.94129 174.288 5.63352 175.716 5.63352C176.725 5.63352 177.649 5.79048 178.486 6.1044C179.323 6.41832 180.046 6.88305 180.655 7.49858C181.265 8.11411 181.739 8.87429 182.077 9.77912C182.416 10.6778 182.585 11.7088 182.585 12.8722V13.9986H170.259V11.3764H178.384C178.378 10.8963 178.264 10.4685 178.043 10.093C177.821 9.71757 177.516 9.42519 177.128 9.21591C176.747 9.00047 176.307 8.89276 175.808 8.89276C175.303 8.89276 174.851 9.00663 174.451 9.23438C174.051 9.45597 173.734 9.76065 173.5 10.1484C173.266 10.5301 173.143 10.964 173.131 11.4503V14.1186C173.131 14.6972 173.244 15.205 173.472 15.642C173.7 16.0729 174.023 16.4084 174.442 16.6484C174.86 16.8885 175.359 17.0085 175.937 17.0085C176.338 17.0085 176.701 16.9531 177.027 16.8423C177.353 16.7315 177.633 16.5684 177.867 16.353C178.101 16.1375 178.276 15.8729 178.393 15.5589L182.539 15.679C182.367 16.6084 181.988 17.4179 181.403 18.1072C180.825 18.7905 180.065 19.3229 179.123 19.7045C178.181 20.08 177.092 20.2678 175.854 20.2678ZM192.896 5.81818V9.14204H183.949V5.81818H192.896ZM185.824 2.42045H190.339V15.5405C190.339 15.8175 190.382 16.0421 190.468 16.2145C190.56 16.3807 190.692 16.5007 190.865 16.5746C191.037 16.6423 191.243 16.6761 191.483 16.6761C191.656 16.6761 191.837 16.6607 192.028 16.63C192.225 16.593 192.373 16.5623 192.471 16.5376L193.155 19.7969C192.939 19.8584 192.634 19.9354 192.241 20.0277C191.853 20.12 191.388 20.1785 190.846 20.2031C189.788 20.2524 188.88 20.1293 188.123 19.8338C187.372 19.5322 186.796 19.0644 186.396 18.4304C186.002 17.7964 185.811 16.9993 185.824 16.0391V2.42045ZM207.403 10.1484L203.258 10.2592C203.215 9.96378 203.098 9.70218 202.907 9.47443C202.716 9.24053 202.467 9.05895 202.159 8.92969C201.857 8.79427 201.507 8.72656 201.106 8.72656C200.583 8.72656 200.137 8.8312 199.768 9.04048C199.405 9.24976 199.226 9.53291 199.232 9.88991C199.226 10.1669 199.337 10.407 199.565 10.6101C199.798 10.8132 200.214 10.9763 200.811 11.0994L203.544 11.6165C204.96 11.8873 206.012 12.3366 206.702 12.9645C207.397 13.5923 207.748 14.4233 207.754 15.4574C207.748 16.4299 207.459 17.2763 206.886 17.9964C206.32 18.7166 205.544 19.2768 204.56 19.6768C203.575 20.0708 202.448 20.2678 201.18 20.2678C199.155 20.2678 197.558 19.8523 196.388 19.0213C195.225 18.1842 194.56 17.0639 194.394 15.6605L198.854 15.5497C198.952 16.0668 199.208 16.4607 199.62 16.7315C200.032 17.0024 200.559 17.1378 201.199 17.1378C201.777 17.1378 202.248 17.0301 202.611 16.8146C202.975 16.5992 203.159 16.313 203.165 15.956C203.159 15.6359 203.018 15.3804 202.741 15.1896C202.464 14.9927 202.03 14.8388 201.439 14.728L198.964 14.2571C197.543 13.9986 196.484 13.5215 195.788 12.826C195.093 12.1243 194.748 11.2318 194.754 10.1484C194.748 9.20052 195 8.3911 195.511 7.72017C196.022 7.04309 196.748 6.52604 197.69 6.16903C198.632 5.81203 199.743 5.63352 201.023 5.63352C202.944 5.63352 204.458 6.0367 205.566 6.84304C206.674 7.64323 207.286 8.74503 207.403 10.1484Z" fill="url(#paint0_linear_189_477)"/>
<defs>
<linearGradient id="paint0_linear_189_477" x1="35" y1="-27" x2="151" y2="117" gradientUnits="userSpaceOnUse">
<stop stop-color="#00EE99"/>
<stop offset="0.806972" stop-color="#9400EE"/>
<stop offset="1" stop-color="#9400EE"/>
</linearGradient>
</defs>
</svg>
