<svg width="142" height="20" viewBox="0 0 142 20" fill="none" xmlns="http://www.w3.org/2000/svg">
<path d="M0.388672 3.80256V0.0909085H16.3709V3.80256H10.6373V19H6.13157V3.80256H0.388672ZM20.6712 19.2401C19.7663 19.2401 18.9631 19.0893 18.2614 18.7876C17.5658 18.4799 17.0149 18.0182 16.6087 17.4027C16.2086 16.781 16.0085 16.0024 16.0085 15.0668C16.0085 14.2789 16.147 13.6141 16.424 13.0724C16.701 12.5308 17.0826 12.0907 17.5689 11.7521C18.0552 11.4136 18.6153 11.1581 19.2493 10.9858C19.8833 10.8073 20.5604 10.6873 21.2805 10.6257C22.0869 10.5518 22.7363 10.4749 23.2287 10.3949C23.7211 10.3087 24.0781 10.1887 24.2997 10.0348C24.5275 9.87476 24.6413 9.65009 24.6413 9.36079V9.31463C24.6413 8.84067 24.4782 8.47443 24.152 8.21591C23.8258 7.95739 23.3857 7.82812 22.8317 7.82812C22.2346 7.82812 21.7545 7.95739 21.3913 8.21591C21.0282 8.47443 20.7973 8.83144 20.6989 9.28693L16.5348 9.1392C16.6579 8.27746 16.9749 7.50805 17.4858 6.83097C18.0028 6.14773 18.7107 5.61222 19.6094 5.22443C20.5142 4.83049 21.6006 4.63352 22.8686 4.63352C23.7734 4.63352 24.6075 4.74124 25.3707 4.95668C26.134 5.16596 26.7988 5.47372 27.3651 5.87997C27.9313 6.28007 28.3684 6.77249 28.6761 7.35724C28.9901 7.942 29.147 8.60985 29.147 9.36079V19H24.8999V17.0241H24.7891C24.5367 17.5043 24.2135 17.9105 23.8196 18.2429C23.4318 18.5753 22.9732 18.8246 22.4439 18.9908C21.9207 19.157 21.3298 19.2401 20.6712 19.2401ZM22.0653 16.2855C22.5516 16.2855 22.9886 16.187 23.3764 15.9901C23.7704 15.7931 24.0843 15.5223 24.3182 15.1776C24.5521 14.8267 24.669 14.4205 24.669 13.9588V12.6108C24.5398 12.6785 24.3828 12.7401 24.1982 12.7955C24.0196 12.8509 23.8227 12.9032 23.6072 12.9524C23.3918 13.0017 23.1702 13.0447 22.9425 13.0817C22.7147 13.1186 22.4962 13.1525 22.2869 13.1832C21.8622 13.2509 21.4991 13.3556 21.1974 13.4972C20.902 13.6387 20.6742 13.8234 20.5142 14.0511C20.3603 14.2727 20.2834 14.5374 20.2834 14.8452C20.2834 15.313 20.4496 15.67 20.782 15.9162C21.1205 16.1624 21.5483 16.2855 22.0653 16.2855ZM35.9794 15.2791L35.9979 9.89631H36.6257L40.6143 4.81818H45.7294L39.8018 12.0938H38.6108L35.9794 15.2791ZM31.9077 19V0.0909085H36.4226V19H31.9077ZM40.7159 19L37.0043 13.1094L39.9773 9.90554L45.9325 19H40.7159ZM53.3904 19.2678C51.907 19.2678 50.6267 18.9754 49.5495 18.3906C48.4785 17.7997 47.6537 16.9595 47.0751 15.87C46.5027 14.7744 46.2164 13.4725 46.2164 11.9645C46.2164 10.4995 46.5057 9.21922 47.0843 8.12358C47.6629 7.02178 48.4785 6.16619 49.5311 5.55682C50.5836 4.94129 51.8239 4.63352 53.252 4.63352C54.2614 4.63352 55.1847 4.79048 56.0218 5.1044C56.859 5.41832 57.5822 5.88305 58.1916 6.49858C58.801 7.11411 59.2749 7.87429 59.6135 8.77912C59.952 9.67779 60.1213 10.7088 60.1213 11.8722V12.9986H47.7953V10.3764H55.9203C55.9141 9.89631 55.8002 9.46851 55.5787 9.09304C55.3571 8.71757 55.0524 8.42519 54.6646 8.21591C54.283 8.00047 53.8429 7.89276 53.3443 7.89276C52.8395 7.89276 52.3871 8.00663 51.987 8.23438C51.5869 8.45597 51.2699 8.76065 51.036 9.14844C50.8021 9.53007 50.679 9.96401 50.6667 10.4503V13.1186C50.6667 13.6972 50.7806 14.205 51.0083 14.642C51.2361 15.0729 51.5592 15.4084 51.9778 15.6484C52.3964 15.8885 52.8949 16.0085 53.4735 16.0085C53.8736 16.0085 54.2368 15.9531 54.563 15.8423C54.8893 15.7315 55.1693 15.5684 55.4032 15.353C55.6371 15.1375 55.8126 14.8729 55.9295 14.5589L60.0751 14.679C59.9028 15.6084 59.5242 16.4179 58.9395 17.1072C58.3609 17.7905 57.6007 18.3229 56.6589 18.7045C55.7172 19.08 54.6277 19.2678 53.3904 19.2678ZM68.0131 19V0.0909085H75.8242C77.2399 0.0909085 78.4618 0.367897 79.4897 0.921875C80.5238 1.4697 81.3209 2.23603 81.881 3.22088C82.4412 4.19957 82.7212 5.3383 82.7212 6.63707C82.7212 7.942 82.435 9.08381 81.8626 10.0625C81.2963 11.035 80.4869 11.7891 79.4343 12.3246C78.3817 12.8601 77.1322 13.1278 75.6857 13.1278H70.8661V9.52699H74.8363C75.5257 9.52699 76.1012 9.40696 76.5629 9.1669C77.0307 8.92685 77.3846 8.59138 77.6246 8.16051C77.8647 7.72348 77.9847 7.21567 77.9847 6.63707C77.9847 6.05232 77.8647 5.54758 77.6246 5.12287C77.3846 4.692 77.0307 4.35961 76.5629 4.12571C76.0951 3.89181 75.5195 3.77486 74.8363 3.77486H72.5835V19H68.0131ZM89.489 10.9119V19H84.9741V0.0909085H89.3413V7.42188H89.4982C89.8183 6.54782 90.3415 5.86458 91.0678 5.37216C91.8003 4.87973 92.6959 4.63352 93.7546 4.63352C94.7518 4.63352 95.6197 4.85511 96.3583 5.2983C97.0969 5.73532 97.6694 6.35393 98.0756 7.15412C98.488 7.95431 98.6912 8.88991 98.685 9.96094V19H94.1701V10.8473C94.1763 10.0594 93.9793 9.44389 93.5792 9.00071C93.1791 8.55753 92.6159 8.33594 91.8896 8.33594C91.4156 8.33594 90.997 8.44058 90.6339 8.64986C90.2769 8.85298 89.9968 9.14536 89.7937 9.52699C89.5967 9.90862 89.4951 10.3703 89.489 10.9119ZM108.123 19.2678C106.634 19.2678 105.354 18.9631 104.282 18.3537C103.218 17.7382 102.396 16.8826 101.817 15.7869C101.245 14.6851 100.959 13.4079 100.959 11.9553C100.959 10.4964 101.245 9.21922 101.817 8.12358C102.396 7.02178 103.218 6.16619 104.282 5.55682C105.354 4.94129 106.634 4.63352 108.123 4.63352C109.613 4.63352 110.89 4.94129 111.955 5.55682C113.026 6.16619 113.848 7.02178 114.42 8.12358C114.999 9.21922 115.288 10.4964 115.288 11.9553C115.288 13.4079 114.999 14.6851 114.42 15.7869C113.848 16.8826 113.026 17.7382 111.955 18.3537C110.89 18.9631 109.613 19.2678 108.123 19.2678ZM108.151 15.8608C108.693 15.8608 109.151 15.6946 109.527 15.3622C109.902 15.0298 110.189 14.5682 110.385 13.9773C110.589 13.3864 110.69 12.7031 110.69 11.9276C110.69 11.1397 110.589 10.4503 110.385 9.85938C110.189 9.26847 109.902 8.80682 109.527 8.47443C109.151 8.14205 108.693 7.97585 108.151 7.97585C107.591 7.97585 107.117 8.14205 106.729 8.47443C106.348 8.80682 106.055 9.26847 105.852 9.85938C105.655 10.4503 105.557 11.1397 105.557 11.9276C105.557 12.7031 105.655 13.3864 105.852 13.9773C106.055 14.5682 106.348 15.0298 106.729 15.3622C107.117 15.6946 107.591 15.8608 108.151 15.8608ZM125.606 4.81818V8.14204H116.659V4.81818H125.606ZM118.534 1.42045H123.048V14.5405C123.048 14.8175 123.092 15.0421 123.178 15.2145C123.27 15.3807 123.402 15.5007 123.575 15.5746C123.747 15.6423 123.953 15.6761 124.193 15.6761C124.366 15.6761 124.547 15.6607 124.738 15.63C124.935 15.593 125.083 15.5623 125.181 15.5376L125.865 18.7969C125.649 18.8584 125.344 18.9354 124.95 19.0277C124.563 19.12 124.098 19.1785 123.556 19.2031C122.498 19.2524 121.59 19.1293 120.833 18.8338C120.082 18.5322 119.506 18.0644 119.106 17.4304C118.712 16.7964 118.521 15.9993 118.534 15.0391V1.42045ZM134.377 19.2678C132.888 19.2678 131.607 18.9631 130.536 18.3537C129.472 17.7382 128.65 16.8826 128.071 15.7869C127.499 14.6851 127.213 13.4079 127.213 11.9553C127.213 10.4964 127.499 9.21922 128.071 8.12358C128.65 7.02178 129.472 6.16619 130.536 5.55682C131.607 4.94129 132.888 4.63352 134.377 4.63352C135.867 4.63352 137.144 4.94129 138.209 5.55682C139.28 6.16619 140.102 7.02178 140.674 8.12358C141.253 9.21922 141.542 10.4964 141.542 11.9553C141.542 13.4079 141.253 14.6851 140.674 15.7869C140.102 16.8826 139.28 17.7382 138.209 18.3537C137.144 18.9631 135.867 19.2678 134.377 19.2678ZM134.405 15.8608C134.947 15.8608 135.405 15.6946 135.781 15.3622C136.156 15.0298 136.442 14.5682 136.639 13.9773C136.843 13.3864 136.944 12.7031 136.944 11.9276C136.944 11.1397 136.843 10.4503 136.639 9.85938C136.442 9.26847 136.156 8.80682 135.781 8.47443C135.405 8.14205 134.947 7.97585 134.405 7.97585C133.845 7.97585 133.371 8.14205 132.983 8.47443C132.602 8.80682 132.309 9.26847 132.106 9.85938C131.909 10.4503 131.811 11.1397 131.811 11.9276C131.811 12.7031 131.909 13.3864 132.106 13.9773C132.309 14.5682 132.602 15.0298 132.983 15.3622C133.371 15.6946 133.845 15.8608 134.405 15.8608Z" fill="url(#paint0_linear_189_842)"/>
<defs>
<linearGradient id="paint0_linear_189_842" x1="1.99998" y1="-28" x2="118" y2="116" gradientUnits="userSpaceOnUse">
<stop stop-color="#00EE99"/>
<stop offset="0.806972" stop-color="#9400EE"/>
<stop offset="1" stop-color="#9400EE"/>
</linearGradient>
</defs>
</svg>
